<svg xmlns="http://www.w3.org/2000/svg" width="46" height="46" viewBox="0 0 46 46">
    <g fill="none" fill-rule="evenodd" transform="translate(1 1)">
        <circle cx="22" cy="22" r="22" stroke="#DDE5ED" stroke-width="1.1"/>
        <g opacity=".7">
            <path fill="#00AEEF" d="M18.5 27.89H12v1.509h19.987v-1.51z"/>
            <path fill="#012B72" d="M14.337 16.887c-.033-.014-.074-.028-.099-.04a1.048 1.048 0 0 1-.486-1.397c.139-.288.454-.408.806-.408.237 0 .491.054.718.15.454.186.892.81 1.316 1.414.066.094.134.187.201.281m0 0c.149.208.3.414.458.597-.943-.007-2.36-.37-2.904-.593m4.333-.007c.074-.112.147-.225.219-.337.363-.574.739-1.167 1.236-1.405.188-.089.401-.144.605-.144.311 0 .604.127.76.451a1.05 1.05 0 0 1-.484 1.397c-.022.011-.057.023-.084.035-.449.19-1.555.484-2.468.573a.594.594 0 0 0-.077-.158c.101-.134.2-.269.293-.412m13.807.003h-9.398l-.483 1h9.381V29.4H12V17.887h.934l-.376-.993h.351c.197.358.5.662.895.853.408.196 1.331.468 2.237.62a4.725 4.725 0 0 0-.651.766c-1.049 1.547-1.209 3.54-.441 5.465a.499.499 0 0 0 .649.28.5.5 0 0 0 .28-.65c-.914-2.29-.067-3.934.34-4.534.339-.5.724-.816 1.071-1v9.195h1.21v-9.294a2.24 2.24 0 0 1 1.628 2.147.5.5 0 1 0 1 0c0-1.02-.482-1.92-1.221-2.515.656-.15 1.242-.336 1.543-.48h.001c.4-.194.704-.504.901-.868a2.048 2.048 0 0 0 .05-1.865c-.462-.955-1.622-1.287-2.697-.774-.757.362-1.232 1.111-1.651 1.772-.105.167-.209.33-.312.481a20.485 20.485 0 0 1-.331-.462c-.506-.72-1.03-1.466-1.751-1.764-1.012-.42-2.302-.297-2.808.748a2.044 2.044 0 0 0 .055 1.872H11.5a.5.5 0 0 0-.5.5V29.9a.5.5 0 0 0 .5.5h20.987a.5.5 0 0 0 .5-.5V17.387a.5.5 0 0 0-.5-.5"/>
            <path fill="#00B9F5" d="M25.48 20.936c-.006 0-.154.211-.445.633 0 .013.007.02.02.02h2.621a.752.752 0 0 1-.055.283c-.236.627-.836.941-1.802.941a3.82 3.82 0 0 1-.536-.032l-.009.023v.611c0 .01.861 1.02 2.585 3.03h.958c.016 0 .023-.008.023-.02v-.124l-2.177-2.63c-.193-.223-.289-.35-.289-.38v-.01c.391 0 .8-.102 1.23-.307.228-.092.468-.292.718-.6.19-.308.294-.569.312-.786h.816c.006 0 .15-.212.431-.634 0-.009-.008-.015-.023-.018h-1.256a1.554 1.554 0 0 0-.33-.693h1.178c.033-.028.18-.242.44-.642v-.01h-4.41c-.009 0-.154.21-.436.63v.022h1.165c.195 0 .416.04.66.12.342.134.573.322.692.564v.01h-2.08z"/>
        </g>
    </g>
</svg>
