<svg width="117" height="16" viewBox="0 0 117 16" fill="none" xmlns="http://www.w3.org/2000/svg">
<path d="M77.2019 4.35168C76.9929 3.73859 76.6041 3.20741 76.0893 2.83147C75.5744 2.45553 74.9588 2.25338 74.3275 2.25293H74.2982C73.8877 2.25269 73.4814 2.33809 73.1038 2.50397C72.7262 2.66986 72.3852 2.91278 72.1014 3.21807C71.8181 2.9127 71.4775 2.6697 71.1002 2.5038C70.723 2.3379 70.317 2.25256 69.9067 2.25293H69.8791C69.1501 2.25209 68.4453 2.52207 67.8942 3.01325V2.77341C67.8863 2.65705 67.8358 2.54812 67.7529 2.46856C67.67 2.38901 67.5609 2.34475 67.4476 2.3447H65.4105C65.2911 2.34482 65.1767 2.39365 65.0922 2.4805C65.0078 2.56734 64.9602 2.68511 64.96 2.80799V14.1946C64.9597 14.2556 64.9712 14.3161 64.9938 14.3726C65.0163 14.4291 65.0495 14.4804 65.0913 14.5236C65.1332 14.5669 65.1829 14.6012 65.2377 14.6246C65.2925 14.648 65.3512 14.6601 65.4105 14.6601H67.4476C67.556 14.6601 67.6607 14.6197 67.7424 14.5464C67.824 14.473 67.8771 14.3716 67.8917 14.2611V6.08733C67.8917 6.05984 67.8917 6.03235 67.8955 6.00487C67.9096 5.82012 67.9886 5.64697 68.1177 5.51786C68.2469 5.38876 68.4174 5.31255 68.5972 5.30351H68.9737C69.1308 5.31408 69.281 5.37362 69.4045 5.4742C69.4927 5.54813 69.5635 5.64175 69.6114 5.74797C69.6593 5.85419 69.6831 5.97024 69.681 6.08733L69.6875 14.2207C69.6878 14.3439 69.7356 14.4619 69.8204 14.5489C69.9052 14.6358 70.0201 14.6846 70.1398 14.6845H72.1768C72.2924 14.6841 72.4034 14.6378 72.4867 14.5552C72.5699 14.4726 72.6189 14.36 72.6235 14.2411V6.07492C72.621 5.94562 72.6501 5.81776 72.7082 5.7031C72.7664 5.58844 72.8516 5.49067 72.956 5.41878C73.0691 5.34478 73.198 5.30048 73.3316 5.28977H73.7072C73.901 5.30066 74.083 5.38876 74.2147 5.53541C74.3464 5.68205 74.4175 5.87571 74.4128 6.07536L74.421 14.1972C74.4208 14.2583 74.4322 14.3187 74.4547 14.3751C74.4773 14.4316 74.5104 14.4829 74.5522 14.5261C74.594 14.5694 74.6437 14.6037 74.6984 14.6271C74.7532 14.6506 74.8118 14.6627 74.8711 14.6627H76.9077C76.967 14.6627 77.0258 14.6506 77.0806 14.6272C77.1354 14.6038 77.1852 14.5694 77.2271 14.5262C77.269 14.483 77.3023 14.4317 77.3249 14.3752C77.3476 14.3188 77.3592 14.2583 77.3591 14.1972V5.46356C77.3766 5.08735 77.3241 4.71117 77.2045 4.35522" fill="#1E1E1E"/>
<path d="M63.4095 2.37579H62.2465V0.425118C62.2483 0.36214 62.236 0.299581 62.2107 0.242223C62.1854 0.184865 62.1476 0.13423 62.1004 0.0941869C62.0531 0.0541439 61.9976 0.0257543 61.938 0.0111903C61.8785 -0.00337374 61.8165 -0.00372575 61.7568 0.0101587C60.4645 0.375023 60.723 2.21663 58.3667 2.37402H58.1359C58.1027 2.37442 58.0696 2.37828 58.0372 2.38554C57.9377 2.40887 57.8488 2.46633 57.7851 2.5485C57.7215 2.63067 57.6869 2.73267 57.687 2.83774V4.9325C57.6868 4.9935 57.6983 5.05396 57.7208 5.1104C57.7433 5.16684 57.7764 5.21815 57.8182 5.26139C57.86 5.30463 57.9097 5.33896 57.9645 5.3624C58.0192 5.38584 58.0779 5.39794 58.1371 5.398H59.3669V14.2873C59.3668 14.3476 59.3783 14.4073 59.4006 14.463C59.423 14.5187 59.4559 14.5694 59.4973 14.612C59.5387 14.6546 59.5879 14.6884 59.642 14.7114C59.6962 14.7345 59.7542 14.7463 59.8128 14.7461H61.8261C61.8846 14.7461 61.9424 14.7342 61.9964 14.7111C62.0504 14.688 62.0994 14.6541 62.1406 14.6115C62.1819 14.5689 62.2145 14.5183 62.2368 14.4627C62.259 14.407 62.2704 14.3474 62.2702 14.2873V5.398H63.4113C63.4705 5.39788 63.5291 5.38574 63.5838 5.36227C63.6385 5.33881 63.6882 5.30447 63.7299 5.26123C63.7717 5.218 63.8048 5.1667 63.8273 5.11029C63.8497 5.05388 63.8612 4.99347 63.861 4.9325V2.83774C63.8611 2.77687 63.8496 2.71656 63.8271 2.66028C63.8046 2.604 63.7715 2.55285 63.7297 2.50976C63.6879 2.46668 63.6383 2.43251 63.5836 2.40921C63.529 2.38592 63.4704 2.37396 63.4113 2.37402" fill="#1E1E1E"/>
<path d="M56.0792 2.37687H54.043C53.9838 2.37675 53.9251 2.38866 53.8703 2.41191C53.8155 2.43516 53.7658 2.4693 53.7238 2.51237C53.6819 2.55545 53.6487 2.60661 53.626 2.66293C53.6033 2.71925 53.5916 2.77962 53.5916 2.84059V7.17462C53.5898 7.3031 53.5392 7.42575 53.4506 7.51631C53.3621 7.60687 53.2426 7.65816 53.1177 7.65919H52.2618C52.135 7.65895 52.0133 7.60691 51.9237 7.51448C51.8341 7.42206 51.7837 7.2968 51.7837 7.1662L51.7764 2.83971C51.7765 2.77881 51.7649 2.7185 51.7424 2.66221C51.7198 2.60592 51.6866 2.55478 51.6448 2.5117C51.603 2.46862 51.5533 2.43446 51.4987 2.41117C51.444 2.38788 51.3854 2.37592 51.3263 2.37598H49.2879C49.2288 2.37598 49.1703 2.38798 49.1156 2.4113C49.061 2.43461 49.0114 2.46878 48.9696 2.51185C48.9279 2.55493 48.8948 2.60605 48.8722 2.66231C48.8497 2.71857 48.8381 2.77885 48.8382 2.83971V7.59136C48.8223 8.00178 48.8892 8.41115 49.0345 8.79368C49.1799 9.1762 49.4007 9.52361 49.6829 9.81401C49.9652 10.1044 50.3028 10.3315 50.6745 10.481C51.0462 10.6305 51.444 10.6992 51.8427 10.6827C51.8427 10.6827 53.16 10.6827 53.2005 10.6903C53.3174 10.7015 53.4262 10.757 53.5056 10.8462C53.5851 10.9353 53.6295 11.0516 53.6303 11.1725C53.6311 11.2934 53.5882 11.4103 53.51 11.5005C53.4317 11.5908 53.3237 11.6478 53.2069 11.6607C53.1966 11.6607 53.1867 11.6647 53.1737 11.6665L50.1942 11.678C50.135 11.678 50.0764 11.6899 50.0216 11.7132C49.9669 11.7364 49.9171 11.7706 49.8752 11.8137C49.8333 11.8567 49.8 11.9078 49.7773 11.9641C49.7546 12.0204 49.7429 12.0808 49.7428 12.1417V14.2383C49.7433 14.3613 49.791 14.4791 49.8756 14.566C49.9602 14.6529 50.0747 14.7018 50.1942 14.702H53.5239C53.9228 14.7185 54.3207 14.6499 54.6926 14.5004C55.0644 14.3508 55.4022 14.1237 55.6845 13.8332C55.9668 13.5427 56.1877 13.1951 56.3331 12.8125C56.4784 12.4298 56.5453 12.0203 56.5293 11.6097V2.84059C56.5294 2.77966 56.5178 2.71931 56.4952 2.66299C56.4726 2.60668 56.4394 2.55551 56.3976 2.51243C56.3557 2.46934 56.306 2.43519 56.2513 2.41192C56.1966 2.38866 56.1379 2.37675 56.0787 2.37687" fill="#1E1E1E"/>
<path d="M36.5398 2.3775H32.0867C32.0287 2.37739 31.9712 2.38904 31.9176 2.4118C31.864 2.43457 31.8153 2.46799 31.7742 2.51015C31.7332 2.55232 31.7006 2.60241 31.6784 2.65754C31.6562 2.71268 31.6447 2.77178 31.6447 2.83147V4.88456V4.89387V4.92623V14.2238C31.6412 14.3413 31.6821 14.4556 31.759 14.5424C31.8359 14.6293 31.9426 14.682 32.0565 14.6893H34.1323C34.1918 14.6896 34.2508 14.6778 34.3058 14.6545C34.3608 14.6312 34.4108 14.5969 34.4529 14.5537C34.495 14.5104 34.5284 14.459 34.5511 14.4024C34.5737 14.3457 34.5853 14.2851 34.5851 14.2238L34.5924 11.0371H36.5411C36.9095 11.0556 37.2776 10.9945 37.6217 10.8578C37.9658 10.7211 38.2783 10.5118 38.5391 10.2433C38.7999 9.97491 39.0033 9.65328 39.1361 9.29912C39.269 8.94497 39.3283 8.56613 39.3104 8.18695V5.22947C39.3281 4.85025 39.2686 4.47141 39.1357 4.11724C39.0028 3.76307 38.7995 3.44139 38.5388 3.17283C38.278 2.90426 37.9656 2.69475 37.6216 2.55771C37.2776 2.42067 36.9096 2.35914 36.5411 2.37706L36.5398 2.3775ZM36.3623 6.21722V7.5122C36.3621 7.6424 36.3117 7.76721 36.2223 7.85928C36.1328 7.95135 36.0116 8.00318 35.8851 8.00341H34.5928V5.40991H35.8851C35.9478 5.40985 36.0098 5.42252 36.0678 5.44718C36.1257 5.47185 36.1783 5.50803 36.2227 5.55365C36.267 5.59928 36.3022 5.65345 36.3261 5.71307C36.3501 5.77269 36.3624 5.83659 36.3623 5.90112V6.21722Z" fill="#1E1E1E"/>
<path d="M44.4908 2.38814H41.6651C41.5491 2.3843 41.4363 2.4279 41.3513 2.50939C41.2664 2.59088 41.2163 2.70364 41.2119 2.82305V3.63745V3.64898V3.67159V4.78924C41.2164 4.9159 41.2696 5.03554 41.3597 5.12191C41.4498 5.20827 41.5696 5.25429 41.6927 5.24986H44.384C44.4909 5.26431 44.5896 5.31634 44.6635 5.39714C44.7373 5.47793 44.7818 5.58252 44.7893 5.69319V5.96319C44.7817 6.071 44.7381 6.17279 44.666 6.25138C44.5939 6.32997 44.4976 6.38054 44.3935 6.39455H43.0624C41.2895 6.39455 40.0257 7.60618 40.0257 9.30769V11.746C40.0045 12.135 40.064 12.5241 40.2 12.8876C40.3361 13.251 40.5456 13.5806 40.8148 13.8545C41.084 14.1283 41.4066 14.3401 41.7614 14.4758C42.1161 14.6116 42.4949 14.6682 42.8725 14.6419H46.5666C46.8742 14.6524 47.1734 14.537 47.3985 14.321C47.6236 14.1049 47.7563 13.8058 47.7675 13.4892V5.53537C47.7675 3.60553 46.7996 2.3877 44.4908 2.3877V2.38814ZM44.816 11.14V11.4672C44.8151 11.493 44.8121 11.5186 44.807 11.5439C44.8025 11.567 44.7966 11.5898 44.7893 11.6121C44.7542 11.7064 44.6916 11.7873 44.6103 11.8438C44.5289 11.9003 44.4326 11.9296 44.3345 11.9278H43.4872C43.3643 11.9319 43.2448 11.8857 43.1549 11.7994C43.065 11.7131 43.0119 11.5936 43.0073 11.4672V11.0708V11.0606V10.0037V9.67212C43.0124 9.54597 43.0656 9.42698 43.1555 9.34104C43.2454 9.25511 43.3646 9.20918 43.4872 9.21327H44.3345C44.4577 9.20907 44.5775 9.25527 44.6678 9.34175C44.758 9.42823 44.8113 9.54796 44.816 9.67478V11.14Z" fill="#1E1E1E"/>
<path d="M80.8046 5.43517H81.2384C81.7613 5.46816 82.2799 5.3197 82.7111 5.01356C82.8887 4.8666 83.0297 4.67835 83.1227 4.46432C83.2157 4.25028 83.258 4.01657 83.2461 3.78242C83.2461 2.76053 82.6108 2.24316 81.3582 2.24316H80.0146V7.34505H80.8046V5.43428V5.43517ZM80.8046 2.97999H81.2957C81.604 2.95531 81.9121 3.0285 82.1787 3.18968C82.2677 3.26307 82.3377 3.35779 82.3828 3.46554C82.4278 3.57329 82.4465 3.69078 82.4372 3.80769C82.4494 3.93526 82.4306 4.06395 82.3824 4.18215C82.3342 4.30035 82.2581 4.40432 82.1611 4.48466C81.8611 4.6554 81.5188 4.73098 81.1772 4.70189H80.8051L80.8046 2.97999Z" fill="#1E1E1E"/>
<path d="M85.859 7.158C86.1128 7.02674 86.3352 6.83931 86.5103 6.60916L86.6365 7.23293H87.2572V3.96644C87.2766 3.74133 87.2499 3.51454 87.1788 3.30071C87.1077 3.08689 86.9939 2.8908 86.8445 2.7251C86.49 2.43932 86.0444 2.30032 85.5954 2.33541C85.3192 2.33645 85.0443 2.37309 84.7769 2.44447C84.5149 2.51378 84.2617 2.61467 84.0227 2.74505L83.9749 2.77254L84.2333 3.42956L84.2915 3.4003C84.6815 3.18615 85.1132 3.06494 85.5549 3.04563C85.6808 3.03358 85.8078 3.04894 85.9276 3.09072C86.0473 3.1325 86.1572 3.19977 86.2501 3.28814C86.4111 3.51137 86.4877 3.78732 86.4655 4.06442V4.29495L85.7491 4.31756C84.2415 4.365 83.4799 4.88724 83.4799 5.87189C83.4684 6.06974 83.4986 6.26782 83.5684 6.45255C83.6382 6.63728 83.746 6.80428 83.8844 6.9421C84.1931 7.20674 84.5878 7.34095 84.9889 7.3176C85.2871 7.32701 85.5839 7.2722 85.8603 7.15667L85.859 7.158ZM86.4487 4.92448V5.28447C86.4591 5.46322 86.4333 5.64225 86.3729 5.81017C86.3124 5.97808 86.2187 6.13121 86.0976 6.2598C85.8309 6.50293 85.4816 6.62771 85.1258 6.60694C84.9124 6.61968 84.7015 6.55383 84.531 6.42118C84.4593 6.35249 84.4034 6.26813 84.3675 6.1743C84.3317 6.08046 84.3167 5.97955 84.3238 5.87898C84.3147 5.74605 84.3413 5.6131 84.4005 5.49461C84.4598 5.37611 84.5494 5.27659 84.6598 5.20689C85.0215 5.0258 85.4207 4.9383 85.8228 4.95197L86.4487 4.92448Z" fill="#1E1E1E"/>
<path d="M90.2717 7.84286L92.2324 2.49581L92.263 2.41158H91.3916L91.377 2.45147C90.7416 4.26028 90.3604 5.35709 90.2467 5.70776C90.1666 5.95337 90.1058 6.14667 90.0636 6.29075C89.9938 6.01588 89.8693 5.62575 89.6906 5.12788L88.6774 2.41113H87.8052L89.6703 7.19515L89.4252 7.84065C89.3734 8.06273 89.2508 8.26055 89.077 8.40261C88.9033 8.54466 88.6883 8.62276 88.4664 8.62446C88.2984 8.62578 88.1308 8.609 87.9663 8.57436L87.8926 8.55751V9.25399L87.9396 9.26552C88.149 9.31439 88.3632 9.33893 88.5779 9.33867C88.9385 9.34898 89.2908 9.22669 89.5717 8.99376C89.8952 8.67617 90.1357 8.27971 90.2708 7.84109" fill="#1E1E1E"/>
<path d="M97.8819 2.32531C97.565 2.3198 97.2518 2.39601 96.9708 2.54698C96.7373 2.67208 96.539 2.85717 96.3954 3.0843C96.2586 2.82666 96.0503 2.61681 95.7971 2.48155C95.5439 2.34628 95.2573 2.29173 94.9739 2.32487C94.6872 2.32058 94.404 2.38926 94.1494 2.52481C93.943 2.63495 93.7656 2.79499 93.6325 2.9912L93.5304 2.41088H92.8589V7.23213H93.6683V4.70513C93.6322 4.25999 93.7333 3.81446 93.9573 3.43187C94.0686 3.30011 94.2085 3.19726 94.3657 3.1317C94.5229 3.06614 94.6929 3.03972 94.8619 3.0546C94.9871 3.04352 95.1132 3.06097 95.2311 3.10572C95.349 3.15047 95.4559 3.22141 95.5442 3.3135C95.7064 3.5457 95.7838 3.82943 95.7626 4.11461V7.23302H96.575V4.5473C96.5443 4.14599 96.6479 3.74596 96.8688 3.4137C96.984 3.28739 97.1253 3.18943 97.2824 3.12711C97.4395 3.06478 97.6081 3.0397 97.7759 3.05371C97.9005 3.04265 98.0259 3.06012 98.1431 3.10489C98.2604 3.14966 98.3665 3.2206 98.4539 3.31262C98.6175 3.54422 98.6955 3.82825 98.674 4.11372V7.23213H99.4856V4.10663C99.5252 3.61904 99.3811 3.13444 99.0832 2.75313C98.9215 2.60156 98.7314 2.48544 98.5247 2.41182C98.3179 2.3382 98.0988 2.30861 97.8806 2.32487" fill="#1E1E1E"/>
<path d="M102.359 2.32572C102.073 2.31459 101.788 2.37111 101.527 2.49093C101.266 2.61075 101.035 2.79068 100.851 3.01688C100.459 3.54411 100.261 4.19806 100.294 4.86159C100.258 5.52068 100.474 6.16804 100.897 6.66463C101.11 6.88531 101.366 7.05746 101.648 7.16995C101.93 7.28244 102.232 7.33276 102.534 7.31766C102.803 7.3215 103.072 7.29744 103.337 7.24584C103.579 7.19052 103.815 7.11108 104.041 7.00865L104.078 6.99181V6.22218L103.992 6.25986C103.54 6.46224 103.053 6.56783 102.56 6.5702C102.368 6.58189 102.176 6.55158 101.997 6.48126C101.818 6.41095 101.655 6.30224 101.52 6.16233C101.261 5.83801 101.124 5.42918 101.132 5.00966H104.274V4.49761C104.298 3.92519 104.113 3.36409 103.757 2.92422C103.58 2.72424 103.363 2.56672 103.121 2.46283C102.878 2.35893 102.617 2.31122 102.354 2.32306L102.359 2.32572ZM101.514 3.39149C101.62 3.27505 101.75 3.18365 101.894 3.12357C102.037 3.06349 102.192 3.03617 102.347 3.04348C102.494 3.03352 102.641 3.05854 102.778 3.11658C102.914 3.17462 103.035 3.26413 103.133 3.37819C103.324 3.64673 103.421 3.97415 103.409 4.30698H101.153C101.179 3.97082 101.306 3.65151 101.518 3.39415L101.514 3.39149Z" fill="#1E1E1E"/>
<path d="M107.55 2.32555C107.246 2.32138 106.945 2.38855 106.67 2.52195C106.448 2.63077 106.254 2.79338 106.107 2.99587L106.005 2.41111H105.333V7.23237H106.145V4.70537C106.105 4.25597 106.218 3.80634 106.462 3.43211C106.593 3.29746 106.75 3.19389 106.923 3.12869C107.097 3.0635 107.282 3.03829 107.466 3.05484C107.602 3.04226 107.739 3.05919 107.868 3.10455C107.998 3.14991 108.116 3.22269 108.216 3.31818C108.392 3.54921 108.478 3.83991 108.455 4.13258V7.23326H109.267V4.10775C109.288 3.86332 109.26 3.61713 109.185 3.38426C109.11 3.15138 108.99 2.9367 108.831 2.75337C108.474 2.44504 108.014 2.2918 107.548 2.32599" fill="#1E1E1E"/>
<path d="M112.446 6.57764C112.332 6.59573 112.217 6.60491 112.101 6.60512C112.009 6.61022 111.918 6.59434 111.832 6.55862C111.747 6.5229 111.671 6.46824 111.609 6.39853C111.478 6.22469 111.415 6.00789 111.429 5.78895V3.0886H112.753V2.41163H111.429V1.32324H110.924L110.628 2.34291L109.964 2.6426V3.0886H110.617V5.82131C110.617 6.81305 111.082 7.31889 112.002 7.31889C112.137 7.31668 112.272 7.30409 112.405 7.28121C112.524 7.26446 112.641 7.23198 112.752 7.18456L112.787 7.16639V6.50139L112.71 6.52488C112.623 6.54852 112.535 6.56688 112.446 6.57986" fill="#1E1E1E"/>
<path d="M116.34 5.06865C116.014 4.77994 115.632 4.56595 115.22 4.44089C114.95 4.34398 114.686 4.22936 114.43 4.09775C114.321 4.04093 114.224 3.9612 114.146 3.86367C114.091 3.77938 114.062 3.67914 114.065 3.57727C114.064 3.49856 114.084 3.42111 114.124 3.3536C114.163 3.28609 114.22 3.23121 114.288 3.19512C114.506 3.08033 114.751 3.02855 114.995 3.04527C115.417 3.05884 115.832 3.15608 116.218 3.33167L116.272 3.35428L116.567 2.66312L116.51 2.63918C116.048 2.43356 115.549 2.32677 115.046 2.3253C114.595 2.30122 114.149 2.42108 113.767 2.66844C113.616 2.77405 113.492 2.91722 113.409 3.08473C113.325 3.25223 113.284 3.4387 113.289 3.62693C113.284 3.83066 113.331 4.0322 113.426 4.2108C113.533 4.38636 113.676 4.53477 113.846 4.64482C114.137 4.82097 114.444 4.96582 114.763 5.07707C115.077 5.18418 115.374 5.33611 115.646 5.52839C115.711 5.57639 115.764 5.63947 115.8 5.71245C115.836 5.78543 115.855 5.86623 115.855 5.94822C115.861 6.04656 115.839 6.14443 115.793 6.23066C115.746 6.31689 115.678 6.388 115.594 6.43589C115.346 6.5626 115.07 6.6208 114.794 6.6048C114.553 6.60301 114.313 6.57025 114.08 6.50727C113.84 6.44583 113.608 6.35659 113.388 6.24127L113.299 6.19694V6.99493L113.33 7.01178C113.779 7.23715 114.276 7.34207 114.775 7.3168C115.257 7.34512 115.736 7.21639 116.144 6.94883C116.306 6.82843 116.437 6.66845 116.524 6.48326C116.611 6.29807 116.652 6.0935 116.643 5.88793C116.652 5.58448 116.543 5.28992 116.342 5.06821" fill="#1E1E1E"/>
<path d="M82.7123 12.2325C82.8611 12.1671 82.9936 12.068 83.1 11.9426C83.2777 11.7199 83.3709 11.4384 83.3623 11.1504C83.3753 10.9532 83.3384 10.7559 83.2554 10.5777C83.1724 10.3995 83.046 10.2464 82.8885 10.1334C82.452 9.89231 81.9576 9.78464 81.4636 9.82303H80.0137V14.9214H81.7772C82.2326 14.9479 82.6826 14.8087 83.0483 14.5281C83.2046 14.3924 83.3286 14.2216 83.4108 14.0289C83.4929 13.8361 83.531 13.6265 83.5221 13.4162C83.5349 13.1541 83.4623 12.8951 83.3159 12.6803C83.1694 12.4655 82.9575 12.3071 82.7136 12.2303L82.7123 12.2325ZM82.6934 13.3763C82.704 13.4912 82.6875 13.607 82.6454 13.7139C82.6032 13.8207 82.5366 13.9156 82.4513 13.9904C82.2175 14.1419 81.9429 14.2126 81.6673 14.1921H80.8058V12.6253H81.6243C81.9127 12.604 82.2009 12.6703 82.453 12.816C82.5362 12.881 82.6018 12.9668 82.6436 13.0653C82.6854 13.1638 82.7021 13.2716 82.6921 13.3786L82.6934 13.3763ZM80.8037 11.8996V10.5585H81.4899C81.7783 10.5371 82.0672 10.5934 82.3281 10.7217C82.405 10.7733 82.4667 10.8456 82.5065 10.9308C82.5463 11.016 82.5627 11.1108 82.5538 11.2049C82.5655 11.304 82.553 11.4046 82.5174 11.4975C82.4818 11.5903 82.4243 11.6726 82.3501 11.7369C82.1158 11.8669 81.8498 11.9238 81.5846 11.9009L80.8037 11.8996Z" fill="#1E1E1E"/>
<path d="M86.176 9.93027C85.6213 9.93404 85.0756 10.0764 84.5861 10.3452L84.5392 10.3701L84.7976 11.0351L84.8567 11.0049C85.2513 10.7891 85.6878 10.667 86.1343 10.6476C86.2612 10.6354 86.3891 10.6508 86.5099 10.6928C86.6306 10.7348 86.7414 10.8025 86.8351 10.8914C86.9982 11.1173 87.0758 11.3965 87.0535 11.677V11.9102L86.3298 11.9341C84.8076 11.9825 84.0365 12.5105 84.0365 13.5031C84.0251 13.7031 84.0557 13.9032 84.1263 14.0899C84.1968 14.2765 84.3056 14.4454 84.4453 14.5848C84.7573 14.852 85.1561 14.9874 85.5614 14.9639C85.8631 14.9728 86.1634 14.9175 86.4435 14.8016C86.6996 14.6692 86.9239 14.4797 87.1 14.247L87.2292 14.8783H87.8564V11.5768C87.8755 11.3492 87.8481 11.1199 87.7761 10.9038C87.7041 10.6877 87.589 10.4894 87.4382 10.3217C87.08 10.0333 86.6299 9.89338 86.1765 9.92938L86.176 9.93027ZM87.038 12.5451V12.909C87.0486 13.0895 87.0226 13.2702 86.9617 13.4398C86.9008 13.6094 86.8064 13.7641 86.6843 13.8941C86.4145 14.1404 86.061 14.2668 85.7009 14.2457C85.4843 14.2604 85.2698 14.1933 85.0979 14.0568C85.026 13.9876 84.9699 13.9028 84.9338 13.8086C84.8977 13.7144 84.8824 13.613 84.889 13.512C84.8796 13.3773 84.9063 13.2425 84.9662 13.1223C85.0262 13.0022 85.117 12.9012 85.2288 12.8306C85.5933 12.6472 85.9959 12.5586 86.4013 12.5725L87.038 12.5451Z" fill="#1E1E1E"/>
<path d="M91.4136 9.92133C91.1061 9.91697 90.8017 9.98506 90.5237 10.1204C90.2989 10.2293 90.1035 10.3934 89.9547 10.5983L89.8517 10.0078H89.1729V14.8787H89.9913V12.3269C89.952 11.8722 90.0655 11.4175 90.3126 11.0385C90.4442 10.9019 90.6035 10.7968 90.779 10.7307C90.9546 10.6647 91.1421 10.6393 91.3283 10.6564C91.4659 10.6438 91.6044 10.661 91.7351 10.7068C91.8658 10.7526 91.9858 10.8261 92.0873 10.9224C92.2647 11.1567 92.3505 11.4509 92.3277 11.747V14.8791H93.1461V11.7199C93.1665 11.4734 93.1382 11.2251 93.063 10.9901C92.9878 10.755 92.8672 10.5381 92.7085 10.3523C92.3467 10.0414 91.8819 9.88714 91.4119 9.92178" fill="#1E1E1E"/>
<path d="M98.2242 10.0081H97.2296L95.722 11.6529C95.5268 11.8777 95.3709 12.071 95.2525 12.2292C95.268 11.9779 95.2766 11.7859 95.2766 11.6529V8.01758H94.4629V14.8822H95.2744V13.0725L95.7284 12.6686L97.3373 14.8822H98.3341L96.2923 12.1002L98.2229 10.0113" fill="#1E1E1E"/>
<path d="M1.03002 7.36035V2.41282H2.79355C3.17846 2.41282 3.49734 2.48288 3.7502 2.62299C4.00305 2.76311 4.19229 2.95476 4.31791 3.19795C4.44353 3.43953 4.50634 3.71171 4.50634 4.01449C4.50634 4.31888 4.44272 4.59267 4.31549 4.83585C4.18987 5.07743 3.99983 5.26909 3.74537 5.41081C3.49251 5.55093 3.17443 5.62099 2.79113 5.62099H1.5784V4.98805H2.72349C2.96668 4.98805 3.16397 4.94618 3.31536 4.86243C3.46674 4.77707 3.57787 4.66111 3.64873 4.51455C3.7196 4.368 3.75503 4.20131 3.75503 4.01449C3.75503 3.82767 3.7196 3.66178 3.64873 3.51683C3.57787 3.37189 3.46594 3.25835 3.31294 3.17621C3.16155 3.09407 2.96185 3.053 2.71382 3.053H1.7765V7.36035H1.03002ZM6.83999 7.43524C6.49212 7.43524 6.18853 7.35552 5.92924 7.19608C5.66994 7.03664 5.46863 6.81358 5.32529 6.52691C5.18195 6.24023 5.11029 5.90524 5.11029 5.52194C5.11029 5.13702 5.18195 4.80042 5.32529 4.51214C5.46863 4.22385 5.66994 3.99999 5.92924 3.84055C6.18853 3.68111 6.49212 3.60139 6.83999 3.60139C7.18786 3.60139 7.49145 3.68111 7.75074 3.84055C8.01003 3.99999 8.21135 4.22385 8.35469 4.51214C8.49802 4.80042 8.56969 5.13702 8.56969 5.52194C8.56969 5.90524 8.49802 6.24023 8.35469 6.52691C8.21135 6.81358 8.01003 7.03664 7.75074 7.19608C7.49145 7.35552 7.18786 7.43524 6.83999 7.43524ZM6.8424 6.82888C7.06788 6.82888 7.2547 6.76929 7.40287 6.65011C7.55104 6.53093 7.66055 6.37229 7.73141 6.1742C7.80389 5.97611 7.84012 5.75788 7.84012 5.51952C7.84012 5.28277 7.80389 5.06535 7.73141 4.86726C7.66055 4.66755 7.55104 4.50731 7.40287 4.38652C7.2547 4.26573 7.06788 4.20533 6.8424 4.20533C6.61532 4.20533 6.42689 4.26573 6.27711 4.38652C6.12894 4.50731 6.01862 4.66755 5.94615 4.86726C5.87528 5.06535 5.83985 5.28277 5.83985 5.51952C5.83985 5.75788 5.87528 5.97611 5.94615 6.1742C6.01862 6.37229 6.12894 6.53093 6.27711 6.65011C6.42689 6.76929 6.61532 6.82888 6.8424 6.82888ZM10.0675 7.36035L8.97554 3.6497H9.72202L10.4492 6.37471H10.4854L11.215 3.6497H11.9615L12.6862 6.36263H12.7224L13.4447 3.6497H14.1912L13.1017 7.36035H12.3649L11.6112 4.68124H11.5556L10.8019 7.36035H10.0675ZM16.363 7.43524C15.9974 7.43524 15.6826 7.35713 15.4184 7.20091C15.1559 7.04308 14.953 6.82163 14.8097 6.53657C14.6679 6.24989 14.5971 5.9141 14.5971 5.52919C14.5971 5.1491 14.6679 4.81411 14.8097 4.52422C14.953 4.23432 15.1527 4.00804 15.4088 3.84538C15.6665 3.68272 15.9676 3.60139 16.3123 3.60139C16.5217 3.60139 16.7246 3.63601 16.9211 3.70527C17.1176 3.77452 17.2939 3.88323 17.4501 4.0314C17.6063 4.17957 17.7296 4.37202 17.8197 4.60877C17.9099 4.84391 17.955 5.12978 17.955 5.46637V5.72245H15.0053V5.18131H17.2472C17.2472 4.99127 17.2085 4.82297 17.1312 4.67641C17.0539 4.52824 16.9452 4.41148 16.8051 4.32612C16.6666 4.24077 16.5039 4.19809 16.3171 4.19809C16.1142 4.19809 15.937 4.24801 15.7856 4.34787C15.6359 4.44611 15.5199 4.57495 15.4378 4.73439C15.3572 4.89222 15.317 5.06374 15.317 5.24895V5.67172C15.317 5.91974 15.3605 6.13072 15.4474 6.30465C15.536 6.47859 15.6592 6.61146 15.8171 6.70326C15.9749 6.79345 16.1593 6.83854 16.3703 6.83854C16.5072 6.83854 16.632 6.81922 16.7447 6.78056C16.8575 6.7403 16.9549 6.68071 17.037 6.60179C17.1192 6.52288 17.182 6.42544 17.2255 6.30948L17.9091 6.43269C17.8544 6.634 17.7561 6.81036 17.6144 6.96175C17.4743 7.11153 17.2979 7.22829 17.0853 7.31204C16.8744 7.39417 16.6336 7.43524 16.363 7.43524ZM18.7565 7.36035V3.6497H19.4546V4.23915H19.4933C19.5609 4.03945 19.6801 3.88242 19.8508 3.76808C20.0231 3.65212 20.218 3.59414 20.4354 3.59414C20.4805 3.59414 20.5337 3.59575 20.5949 3.59897C20.6577 3.60219 20.7068 3.60622 20.7422 3.61105V4.30197C20.7132 4.29391 20.6617 4.28505 20.5876 4.27539C20.5135 4.26412 20.4395 4.25848 20.3654 4.25848C20.1947 4.25848 20.0425 4.29472 19.9088 4.36719C19.7767 4.43805 19.672 4.5371 19.5947 4.66433C19.5174 4.78995 19.4788 4.93329 19.4788 5.09434V7.36035H18.7565ZM22.8337 7.43524C22.4681 7.43524 22.1533 7.35713 21.8891 7.20091C21.6266 7.04308 21.4237 6.82163 21.2804 6.53657C21.1386 6.24989 21.0678 5.9141 21.0678 5.52919C21.0678 5.1491 21.1386 4.81411 21.2804 4.52422C21.4237 4.23432 21.6234 4.00804 21.8795 3.84538C22.1372 3.68272 22.4383 3.60139 22.783 3.60139C22.9923 3.60139 23.1953 3.63601 23.3918 3.70527C23.5882 3.77452 23.7646 3.88323 23.9208 4.0314C24.077 4.17957 24.2002 4.37202 24.2904 4.60877C24.3806 4.84391 24.4257 5.12978 24.4257 5.46637V5.72245H21.476V5.18131H23.7179C23.7179 4.99127 23.6792 4.82297 23.6019 4.67641C23.5246 4.52824 23.4159 4.41148 23.2758 4.32612C23.1373 4.24077 22.9746 4.19809 22.7878 4.19809C22.5849 4.19809 22.4077 4.24801 22.2563 4.34787C22.1066 4.44611 21.9906 4.57495 21.9085 4.73439C21.8279 4.89222 21.7877 5.06374 21.7877 5.24895V5.67172C21.7877 5.91974 21.8312 6.13072 21.9181 6.30465C22.0067 6.47859 22.1299 6.61146 22.2877 6.70326C22.4456 6.79345 22.63 6.83854 22.841 6.83854C22.9778 6.83854 23.1027 6.81922 23.2154 6.78056C23.3281 6.7403 23.4256 6.68071 23.5077 6.60179C23.5898 6.52288 23.6527 6.42544 23.6961 6.30948L24.3798 6.43269C24.3251 6.634 24.2268 6.81036 24.0851 6.96175C23.945 7.11153 23.7686 7.22829 23.556 7.31204C23.345 7.39417 23.1043 7.43524 22.8337 7.43524ZM26.6162 7.43283C26.3167 7.43283 26.0493 7.35633 25.8142 7.20333C25.5807 7.04872 25.3971 6.82888 25.2634 6.54382C25.1313 6.25714 25.0653 5.9133 25.0653 5.51227C25.0653 5.11125 25.1321 4.76821 25.2658 4.48315C25.4011 4.19809 25.5863 3.97986 25.8214 3.82847C26.0566 3.67708 26.3231 3.60139 26.6211 3.60139C26.8514 3.60139 27.0366 3.64004 27.1767 3.71735C27.3184 3.79304 27.4279 3.88162 27.5052 3.98308C27.5841 4.08454 27.6453 4.17393 27.6888 4.25123H27.7323V2.41282H28.4546V7.36035H27.7492V6.78298H27.6888C27.6453 6.86189 27.5825 6.95208 27.5004 7.05355C27.4199 7.15501 27.3087 7.24359 27.167 7.31928C27.0253 7.39498 26.8417 7.43283 26.6162 7.43283ZM26.7757 6.8168C26.9834 6.8168 27.159 6.76204 27.3023 6.65253C27.4473 6.5414 27.5568 6.38759 27.6309 6.19111C27.7065 5.99463 27.7444 5.76593 27.7444 5.50503C27.7444 5.24734 27.7074 5.02187 27.6333 4.82861C27.5592 4.63534 27.4505 4.48476 27.3071 4.37685C27.1638 4.26895 26.9866 4.215 26.7757 4.215C26.5582 4.215 26.3771 4.27137 26.2321 4.3841C26.0872 4.49684 25.9776 4.65064 25.9036 4.84552C25.8311 5.04039 25.7949 5.26023 25.7949 5.50503C25.7949 5.75305 25.8319 5.97611 25.906 6.1742C25.9801 6.37229 26.0896 6.52932 26.2345 6.64528C26.3811 6.75963 26.5615 6.8168 26.7757 6.8168ZM21.5582 14.3604V9.41282H22.2805V11.2512H22.324C22.3658 11.1739 22.4262 11.0845 22.5052 10.9831C22.5841 10.8816 22.6936 10.793 22.8337 10.7173C22.9738 10.64 23.159 10.6014 23.3893 10.6014C23.6889 10.6014 23.9562 10.6771 24.1914 10.8285C24.4265 10.9799 24.6109 11.1981 24.7446 11.4831C24.8799 11.7682 24.9475 12.1113 24.9475 12.5123C24.9475 12.9133 24.8807 13.2571 24.747 13.5438C24.6133 13.8289 24.4297 14.0487 24.1962 14.2033C23.9627 14.3563 23.6961 14.4328 23.3966 14.4328C23.1711 14.4328 22.9867 14.395 22.8434 14.3193C22.7016 14.2436 22.5905 14.155 22.51 14.0535C22.4295 13.9521 22.3675 13.8619 22.324 13.783H22.2636V14.3604H21.5582ZM22.266 12.505C22.266 12.7659 22.3038 12.9946 22.3795 13.1911C22.4552 13.3876 22.5647 13.5414 22.7081 13.6525C22.8514 13.762 23.027 13.8168 23.2347 13.8168C23.4505 13.8168 23.6309 13.7596 23.7759 13.6453C23.9208 13.5293 24.0303 13.3723 24.1044 13.1742C24.1801 12.9761 24.218 12.753 24.218 12.505C24.218 12.2602 24.1809 12.0404 24.1068 11.8455C24.0344 11.6506 23.9248 11.4968 23.7783 11.3841C23.6333 11.2714 23.4521 11.215 23.2347 11.215C23.0254 11.215 22.8482 11.2689 22.7033 11.3769C22.5599 11.4848 22.4512 11.6353 22.3771 11.8286C22.303 12.0219 22.266 12.2473 22.266 12.505ZM26.089 15.7518C25.9811 15.7518 25.8828 15.743 25.7943 15.7253C25.7057 15.7092 25.6396 15.6915 25.5962 15.6721L25.7701 15.0803C25.9022 15.1157 26.0197 15.131 26.1228 15.1262C26.2259 15.1213 26.3169 15.0827 26.3958 15.0102C26.4763 14.9377 26.5472 14.8194 26.6084 14.6551L26.6978 14.4087L25.3401 10.6497H26.1131L27.0529 13.5293H27.0915L28.0313 10.6497H28.8067L27.2775 14.8556C27.2067 15.0489 27.1165 15.2123 27.007 15.346C26.8975 15.4813 26.767 15.5827 26.6156 15.6504C26.4642 15.718 26.2887 15.7518 26.089 15.7518Z" fill="#1E1E1E"/>
</svg>
